<?xml version="1.0" standalone="no"?>
<!DOCTYPE svg PUBLIC "-//W3C//DTD SVG 20010904//EN"
 "http://www.w3.org/TR/2001/REC-SVG-20010904/DTD/svg10.dtd">
<svg version="1.0" xmlns="http://www.w3.org/2000/svg"
 width="299.000000pt" height="299.000000pt" viewBox="0 0 299.000000 299.000000"
 preserveAspectRatio="xMidYMid meet">
<metadata>
Created by potrace 1.14, written by Peter Selinger 2001-2017
</metadata>
<g transform="translate(0.000000,299.000000) scale(0.100000,-0.100000)"
fill="#000000" stroke="none">
<path d="M990 2403 c-30 -8 -58 -18 -62 -21 -4 -4 -1 -28 6 -53 l14 -46 -31
-18 c-62 -36 -103 -95 -110 -157 -2 -20 -20 -56 -45 -89 -154 -204 -207 -517
-131 -774 45 -149 116 -269 226 -380 184 -184 399 -269 663 -260 69 2 152 11
184 19 358 91 624 384 676 745 33 223 -30 481 -159 651 -22 30 -41 64 -41 75
-1 35 -37 102 -74 137 l-36 34 15 37 c24 58 20 64 -42 83 -32 10 -62 21 -67
26 -6 4 -16 -13 -25 -40 -15 -43 -19 -47 -51 -50 -21 -2 -74 10 -125 27 -105
35 -184 46 -313 44 -93 -2 -240 -31 -294 -59 -15 -8 -38 -14 -52 -14 -20 0
-27 8 -41 50 -9 28 -20 50 -23 49 -4 0 -32 -7 -62 -16z"/>
</g>
</svg>
