<?xml version="1.0" standalone="no"?>
<!DOCTYPE svg PUBLIC "-//W3C//DTD SVG 20010904//EN"
 "http://www.w3.org/TR/2001/REC-SVG-20010904/DTD/svg10.dtd">
<svg version="1.0" xmlns="http://www.w3.org/2000/svg"
 width="140.000000pt" height="140.000000pt" viewBox="0 0 140.000000 140.000000"
 preserveAspectRatio="xMidYMid meet">
<metadata>
Created by potrace 1.14, written by Peter Selinger 2001-2017
</metadata>
<g transform="translate(0.000000,140.000000) scale(0.100000,-0.100000)"
fill="#000000" stroke="none">
<path d="M575 1354 c-84 -21 -146 -44 -200 -77 -67 -41 -84 -54 -80 -59 3 -2
-5 -10 -18 -17 -74 -42 -182 -231 -204 -359 -10 -64 -7 -195 8 -252 7 -30 13
-57 14 -60 2 -17 58 -126 83 -163 38 -54 142 -157 159 -157 7 0 13 -4 13 -10
0 -5 5 -10 11 -10 6 0 34 -25 63 -54 28 -30 67 -61 86 -69 49 -19 155 -15 205
8 43 20 44 20 90 28 203 33 382 169 472 357 62 129 75 316 32 455 -7 22 -13
42 -14 45 -2 14 -52 107 -62 118 -7 7 -13 17 -13 22 0 15 -117 126 -171 162
-61 40 -164 83 -224 93 -67 12 -197 11 -250 -1z"/>
</g>
</svg>
