<svg width="500" height="500" viewBox="0 0 500 500" fill="none" xmlns="http://www.w3.org/2000/svg">
<g clip-path="url(#clip0_3315_84828)">
<path d="M146.46 1.75015C119.86 3.00515 101.695 7.25015 85.8149 13.4901C69.3799 19.8951 55.4499 28.4902 41.5899 42.4002C27.7299 56.3102 19.1949 70.2502 12.8349 86.7102C6.67992 102.625 2.50992 120.805 1.33492 147.42C0.159917 174.035 -0.100083 182.59 0.0299171 250.48C0.159917 318.37 0.459917 326.88 1.74992 353.55C3.01992 380.145 7.24992 398.305 13.4899 414.19C19.9049 430.625 28.4899 444.55 42.4049 458.415C56.3199 472.28 70.2499 480.795 86.7499 487.165C102.65 493.31 120.835 497.5 147.445 498.665C174.055 499.83 182.62 500.1 250.49 499.97C318.36 499.84 326.905 499.54 353.57 498.275C380.235 497.01 398.3 492.75 414.19 486.54C430.625 480.11 444.56 471.54 458.415 457.62C472.27 443.7 480.8 429.75 487.155 413.28C493.315 397.38 497.5 379.195 498.655 352.605C499.82 325.92 500.095 317.4 499.965 249.52C499.835 181.64 499.53 173.13 498.265 146.47C497 119.81 492.765 101.705 486.53 85.8102C480.105 69.3752 471.53 55.4601 457.62 41.5851C443.71 27.7101 429.75 19.1852 413.285 12.8451C397.375 6.69015 379.2 2.49515 352.59 1.34515C325.98 0.195149 317.415 -0.0998507 249.52 0.0301493C181.625 0.160149 173.125 0.450149 146.46 1.75015ZM149.38 453.69C125.005 452.63 111.77 448.58 102.95 445.19C91.2699 440.69 82.9499 435.25 74.1599 426.545C65.3699 417.84 59.9699 409.49 55.4099 397.835C51.9849 389.015 47.8599 375.795 46.7199 351.42C45.4799 325.075 45.2199 317.165 45.0749 250.42C44.9299 183.675 45.1849 175.775 46.3399 149.42C47.3799 125.065 51.4549 111.815 54.8399 103C59.3399 91.3052 64.7599 83.0001 73.4849 74.2151C82.2099 65.4301 90.5349 60.0201 102.2 55.4601C111.01 52.0201 124.23 47.9301 148.595 46.7701C174.96 45.5201 182.86 45.2701 249.595 45.1251C316.33 44.9801 324.25 45.2301 350.625 46.3901C374.98 47.4501 388.235 51.4851 397.04 54.8901C408.725 59.3901 417.04 64.7952 425.825 73.5352C434.61 82.2752 440.025 90.5702 444.585 102.26C448.03 111.045 452.12 124.26 453.27 148.64C454.525 175.005 454.81 182.91 454.93 249.64C455.05 316.37 454.815 324.295 453.66 350.64C452.595 375.015 448.555 388.255 445.16 397.085C440.66 408.76 435.235 417.085 426.505 425.865C417.775 434.645 409.46 440.055 397.79 444.615C388.99 448.05 375.755 452.15 351.41 453.31C325.045 454.55 317.145 454.81 250.385 454.955C183.625 455.1 175.75 454.83 149.385 453.69M353.185 116.385C353.195 122.319 354.964 128.117 358.269 133.045C361.574 137.973 366.267 141.81 371.753 144.072C377.239 146.333 383.273 146.916 389.09 145.748C394.908 144.58 400.249 141.713 404.437 137.509C408.625 133.306 411.473 127.955 412.619 122.133C413.766 116.311 413.161 110.279 410.879 104.802C408.598 99.3237 404.743 94.6454 399.803 91.3584C394.863 88.0714 389.059 86.3233 383.125 86.3352C375.17 86.3511 367.547 89.5256 361.933 95.1608C356.318 100.796 353.172 108.43 353.185 116.385ZM121.635 250.25C121.775 321.15 179.355 378.495 250.24 378.36C321.125 378.225 378.51 320.65 378.375 249.75C378.24 178.85 320.645 121.49 249.75 121.63C178.855 121.77 121.5 179.36 121.635 250.25ZM166.665 250.16C166.632 233.678 171.488 217.556 180.618 203.834C189.748 190.112 202.742 179.405 217.957 173.067C233.171 166.73 249.924 165.046 266.096 168.23C282.267 171.413 297.132 179.321 308.81 190.952C320.487 202.584 328.454 217.417 331.701 233.576C334.949 249.735 333.332 266.494 327.054 281.734C320.777 296.974 310.122 310.01 296.435 319.194C282.749 328.378 266.647 333.297 250.165 333.33C239.221 333.353 228.379 331.22 218.26 327.053C208.14 322.885 198.941 316.765 191.187 309.042C183.433 301.318 177.276 292.143 173.069 282.04C168.861 271.937 166.685 261.104 166.665 250.16Z" fill="#8438FF"/>
</g>
<defs>
<clipPath id="clip0_3315_84828">
<rect width="500" height="500" fill="white"/>
</clipPath>
</defs>
</svg>
