<svg width="447" height="500" viewBox="0 0 447 500" fill="none" xmlns="http://www.w3.org/2000/svg">
<path fill-rule="evenodd" clip-rule="evenodd" d="M261.594 21.8149H326.019C332.228 54.5654 352.129 82.6678 379.699 100.226C379.708 100.237 379.719 100.248 379.728 100.259C398.92 112.477 421.804 119.605 446.369 119.605V138.74L446.372 205.552C400.74 205.552 358.456 191.293 323.942 167.093V341.781C323.942 429.024 251.283 500 161.968 500C127.457 500 95.4531 489.368 69.1457 471.324C69.1317 471.31 69.1176 471.293 69.1007 471.279C27.3567 442.631 0 395.275 0 341.764C0 254.524 72.6595 183.546 161.974 183.546C169.384 183.546 176.648 184.142 183.8 185.089V205.453L183.797 272.861C176.887 270.749 169.584 269.52 161.968 269.52C121.181 269.52 87.9977 301.939 87.9977 341.781C87.9977 369.527 104.112 393.633 127.657 405.736C137.923 411.014 149.584 414.039 161.965 414.039C201.813 414.039 234.318 383.077 235.798 344.5L235.939 0H323.939C323.939 7.45161 324.677 14.7345 326.019 21.8149H261.594Z" fill="#8438FF"/>
</svg>
